<svg xmlns="http://www.w3.org/2000/svg" viewBox="0 0 64 64">
  <circle cx="32" cy="36" r="24" fill="#FFD4A3"/>
  <polygon points="14,20 22,4 28,20" fill="#FFD4A3" stroke="#E0B080" stroke-width="1.5"/>
  <polygon points="36,20 42,4 50,20" fill="#FFD4A3" stroke="#E0B080" stroke-width="1.5"/>
  <polygon points="17,18 22,8 26,18" fill="#FFB6C1"/>
  <polygon points="38,18 42,8 46,18" fill="#FFB6C1"/>
  <ellipse cx="24" cy="32" rx="5" ry="6" fill="white"/>
  <ellipse cx="40" cy="32" rx="5" ry="6" fill="white"/>
  <ellipse cx="24" cy="33" rx="3" ry="4.5" fill="#333"/>
  <ellipse cx="40" cy="33" rx="3" ry="4.5" fill="#333"/>
  <circle cx="22" cy="30" r="1.5" fill="white"/>
  <circle cx="38" cy="30" r="1.5" fill="white"/>
  <polygon points="32,38 29,41 35,41" fill="#FF8899"/>
  <line x1="20" y1="36" x2="8" y2="34" stroke="#E0B080" stroke-width="1"/>
  <line x1="20" y1="38" x2="8" y2="38" stroke="#E0B080" stroke-width="1"/>
  <line x1="20" y1="40" x2="8" y2="42" stroke="#E0B080" stroke-width="1"/>
  <line x1="44" y1="36" x2="56" y2="34" stroke="#E0B080" stroke-width="1"/>
  <line x1="44" y1="38" x2="56" y2="38" stroke="#E0B080" stroke-width="1"/>
  <line x1="44" y1="40" x2="56" y2="42" stroke="#E0B080" stroke-width="1"/>
</svg>
